<svg xmlns="http://www.w3.org/2000/svg" width="23" height="21" fill="none"><path d="M5.5.5l6 2.5 4-2.5 5.5 2L22.5 8 17 15l-5.5 5.5L.5 8l1-5 4-2.5z" fill="#fbfbfb"/><path d="M21.142 1.95C19.938.699 18.343.015 16.642.015s-3.301.689-4.505 1.939l-.629.653-.639-.663C9.664.694 8.06 0 6.358 0S3.062.689 1.863 1.934C.658 3.185-.005 4.846 0 6.613s.668 3.423 1.872 4.674l9.157 9.51a.65.65 0 0 0 .463.203c.166 0 .336-.066.463-.198l9.177-9.495C22.337 10.057 23 8.396 23 6.629S22.347 3.2 21.142 1.95zm-.936 8.391l-8.713 9.014-8.694-9.029c-.956-.993-1.482-2.309-1.482-3.712s.522-2.719 1.477-3.707a4.92 4.92 0 0 1 3.564-1.534c1.351 0 2.623.547 3.579 1.539l1.102 1.144a.64.64 0 0 0 .931 0l1.092-1.134c.956-.993 2.228-1.539 3.574-1.539s2.614.547 3.569 1.534c.956.993 1.477 2.309 1.477 3.712a5.29 5.29 0 0 1-1.477 3.712z" fill="#fffbfb"/></svg>
