<svg xmlns="http://www.w3.org/2000/svg" width="46" height="25" fill="none"><path d="M4.875.07a11.61 11.61 0 0 1 1.541.1c.5.063.947.172 1.342.328s.725.359.979.621a1.6 1.6 0 0 1 .451.979l-1.523.422c0-.234-.08-.426-.24-.574s-.365-.271-.627-.357a3.97 3.97 0 0 0-.891-.187c-.332-.035-.676-.053-1.031-.053l-1.025.047c-.336.031-.639.09-.908.176s-.48.205-.645.357a.77.77 0 0 0-.246.592v1.395h7.137v3.035c0 .262-.059.496-.176.703s-.271.381-.475.533-.437.275-.715.381a5.68 5.68 0 0 1-.891.246c-.316.063-.65.107-1.002.135l-1.055.041c-.359 0-.713-.014-1.061-.041s-.678-.072-.99-.135-.604-.145-.873-.246-.5-.232-.703-.381-.367-.33-.492-.533-.201-.437-.229-.703l1.523-.422a.77.77 0 0 0 .246.592c.164.152.379.271.645.357s.572.145.908.176l1.025.047 1.031-.047c.336-.035.633-.096.891-.182a1.65 1.65 0 0 0 .627-.363c.16-.152.24-.346.24-.58v-1.43H.527v-3c0-.262.057-.492.17-.691s.275-.379.475-.527.443-.279.721-.381a5.46 5.46 0 0 1 .896-.252A9.07 9.07 0 0 1 3.803.111L4.875.07zm7.477 2.227l-.094.832-.035.867.047 1.066c.031.352.098.689.199 1.014s.256.625.451.914.467.553.803.791c.191-.121.344-.268.457-.439a2.35 2.35 0 0 0 .275-.562 3.28 3.28 0 0 0 .141-.609l.076-.604v-1.43h1.172v1.43l.07.604a3.64 3.64 0 0 0 .146.609 2.49 2.49 0 0 0 .27.563c.117.172.268.318.451.439.336-.238.604-.502.803-.791a3.58 3.58 0 0 0 .457-.914c.105-.324.174-.662.205-1.014l.047-1.066-.041-.867-.1-.832.943.076.697.094.586.111v1.359a1.52 1.52 0 0 0-.293-.123c-.09-.031-.17-.055-.24-.07-.082-.016-.158-.025-.229-.029 0 .566-.025 1.074-.076 1.523s-.127.846-.229 1.201-.23.672-.387.949-.334.529-.545.756-.449.428-.715.615a8.83 8.83 0 0 1-.885.545c-.371-.211-.678-.447-.92-.709s-.443-.561-.604-.896a3.27 3.27 0 0 1-.598.896c-.242.262-.555.498-.937.709a9.18 9.18 0 0 1-.879-.545c-.262-.187-.498-.393-.709-.615a3.89 3.89 0 0 1-.539-.756c-.152-.277-.279-.594-.381-.949s-.178-.756-.229-1.201-.076-.957-.076-1.523c-.074.004-.152.014-.234.029-.074.016-.158.039-.252.07s-.193.068-.299.123V2.578l.592-.111.697-.094.938-.076zm13.605.023l.721.029a8.99 8.99 0 0 1 .873.105 6.55 6.55 0 0 1 .902.205c.297.086.563.197.797.334a1.84 1.84 0 0 1 .574.498c.148.191.223.418.223.68v1.98h-6.715v1.5l1.365.141 1.26.035 1.664-.07 1.295-.158 1.131-.229v1.301l-2.15.252L25.957 9c-.609 0-1.162-.016-1.658-.047l-1.277-.117-1.119-.164v-4.5c0-.262.064-.488.193-.68a1.7 1.7 0 0 1 .516-.498 3.05 3.05 0 0 1 .738-.334 5.8 5.8 0 0 1 .873-.205c.301-.051.6-.086.896-.105l.838-.029zm-2.625 2.895h5.262v-.68c0-.16-.039-.297-.117-.41s-.184-.215-.316-.293a1.75 1.75 0 0 0-.457-.187 3.38 3.38 0 0 0-.539-.111 5.49 5.49 0 0 0-.568-.053l-.533-.012-.568.012-.604.053c-.203.027-.398.066-.586.117s-.354.111-.498.193-.26.176-.346.293a.66.66 0 0 0-.129.41v.668zM35.871 2.32l.721.029c.281.02.572.055.873.105a6.55 6.55 0 0 1 .902.205c.297.086.563.197.797.334a1.84 1.84 0 0 1 .574.498c.148.191.223.418.223.68v1.98h-6.715v1.5l1.365.141 1.26.035 1.664-.07L38.83 7.6l1.131-.229v1.301l-2.15.252L35.871 9c-.609 0-1.162-.016-1.658-.047l-1.277-.117-1.119-.164v-4.5c0-.262.064-.488.193-.68a1.7 1.7 0 0 1 .516-.498c.215-.137.461-.248.738-.334s.572-.158.873-.205.6-.086.897-.105l.838-.029zm-2.625 2.895h5.262v-.68c0-.16-.039-.297-.117-.41s-.184-.215-.316-.293-.281-.141-.457-.187a3.38 3.38 0 0 0-.539-.111c-.187-.027-.377-.045-.568-.053l-.533-.012-.568.012-.604.053a4.57 4.57 0 0 0-.586.117c-.188.047-.354.111-.498.193s-.26.176-.346.293a.66.66 0 0 0-.129.41v.668zm10.43-2.977h1.488v.984h-1.488V9h-1.395V3.223H41.18v-.984h1.102V.199h1.395v2.039zm-40.5 16.231a3.67 3.67 0 0 0 .463.064l.475.018c.516 0 .938-.088 1.266-.264a1.98 1.98 0 0 0 .773-.727c.188-.309.318-.672.393-1.09a8.69 8.69 0 0 0 .123-1.365l.949.07.791.088.744.111v1.488l-.229-.064-.305-.07-.357-.076-.387-.082a6.87 6.87 0 0 1-.123.744c-.051.242-.123.475-.217.697a2.75 2.75 0 0 1-.357.615 2.03 2.03 0 0 1-.521.475 2.19 2.19 0 0 1 .727.398c.211.176.393.379.545.609a3.44 3.44 0 0 1 .387.744 5.67 5.67 0 0 1 .252.82 6.83 6.83 0 0 1 .135.832l.041.767-.012.375-.023.328H7.324c.02-.141.031-.275.035-.404l.012-.393c0-.508-.061-.965-.182-1.371s-.291-.75-.51-1.031-.48-.502-.785-.65-.633-.229-.996-.229l-.627.018-.451.053a3.14 3.14 0 0 0-.346.07l-.299.082v3.856H1.734v-7.359l-.621.135a3.06 3.06 0 0 0-.422.111v-1.488l.738-.111.791-.088.955-.07v3.363zm11.566-1.254l.979.047a7.11 7.11 0 0 1 .943.152c.301.07.582.158.844.264s.488.232.68.381.348.32.457.516.164.406.164.645v3.035c0 .211-.055.404-.164.58a1.69 1.69 0 0 1-.457.475c-.191.137-.418.256-.68.357s-.543.186-.844.252a7.82 7.82 0 0 1-.943.146c-.328.035-.654.053-.979.053s-.65-.018-.979-.053-.637-.08-.937-.146a5.76 5.76 0 0 1-.844-.252 3.27 3.27 0 0 1-.68-.357c-.191-.141-.342-.297-.451-.469s-.164-.371-.164-.586v-3.035c0-.238.055-.453.164-.645s.26-.367.451-.516.422-.275.68-.381.543-.193.844-.264.613-.121.938-.152l.979-.047zm-2.566 4.664a.61.61 0 0 0 .223.469c.152.129.35.238.592.328s.516.15.82.193.619.064.932.064c.328 0 .644-.023.949-.07s.582-.113.82-.199.428-.199.568-.328.217-.285.217-.457v-2.437a.6.6 0 0 0-.217-.451c-.141-.137-.33-.25-.568-.34s-.512-.164-.82-.211-.621-.076-.949-.076a6.19 6.19 0 0 0-.932.07 3.95 3.95 0 0 0-.82.199c-.242.09-.439.203-.592.34a.61.61 0 0 0-.223.469v2.438zm14.66-.27c-.098-.086-.219-.17-.363-.252a2.56 2.56 0 0 0-.533-.217c-.211-.066-.463-.119-.756-.158a7.04 7.04 0 0 0-1.019-.064l-.99.023c-.309.012-.58.051-.814.117s-.42.164-.557.305-.205.336-.205.586v.75l1.137.135 1.383.053 1.295-.041c.461-.031.936-.092 1.424-.182v-1.055zm-2.637-4.289l.709.029a9.01 9.01 0 0 1 .867.106 6.99 6.99 0 0 1 .891.199 3.34 3.34 0 0 1 .797.328c.238.133.43.293.574.481s.217.408.217.662v4.535l-1.113.17-1.271.117-1.646.053c-.602 0-1.242-.025-1.922-.076l-2.121-.264v-2.109a1.09 1.09 0 0 1 .158-.592 1.45 1.45 0 0 1 .445-.439c.188-.121.408-.221.662-.299a6.04 6.04 0 0 1 .82-.187 8.4 8.4 0 0 1 .914-.094l.949-.029c.48 0 .889.031 1.225.094a6.59 6.59 0 0 1 .844.193c.258.086.471.182.639.287v-.949c0-.16-.039-.297-.117-.41s-.184-.215-.317-.293a1.73 1.73 0 0 0-.457-.193 3.86 3.86 0 0 0-.539-.117 5.48 5.48 0 0 0-.574-.053l-.539-.012-.562.018-.598.053c-.195.027-.385.067-.568.117s-.34.111-.48.193-.254.182-.34.299a.68.68 0 0 0-.123.41l-1.453-.375c0-.262.064-.488.193-.68s.299-.361.51-.498.461-.248.738-.334.564-.158.861-.205.6-.086.896-.106l.832-.029zm7.43 6.68h-1.336v-8.801h1.336V24zm8.754-2.391a2.17 2.17 0 0 0-.363-.252c-.145-.082-.322-.154-.533-.217a4.55 4.55 0 0 0-.756-.158 7.04 7.04 0 0 0-1.02-.064l-.99.023c-.309.012-.58.051-.815.117s-.42.164-.557.305-.205.336-.205.586v.75l1.137.135 1.383.053 1.295-.041a12.57 12.57 0 0 0 1.424-.182v-1.055zm-2.637-4.289l.709.029a9.01 9.01 0 0 1 .867.106c.301.047.598.113.891.199a3.34 3.34 0 0 1 .797.328c.238.133.43.293.574.481s.217.408.217.662v4.535l-1.113.17-1.272.117L37.77 24c-.602 0-1.242-.025-1.922-.076l-2.121-.264v-2.109a1.09 1.09 0 0 1 .158-.592 1.45 1.45 0 0 1 .445-.439c.188-.121.408-.221.662-.299s.527-.141.82-.187a8.4 8.4 0 0 1 .914-.094l.949-.029a6.82 6.82 0 0 1 1.225.094 6.59 6.59 0 0 1 .844.193c.258.086.471.182.639.287v-.949c0-.16-.039-.297-.117-.41s-.184-.215-.316-.293a1.73 1.73 0 0 0-.457-.193c-.172-.051-.352-.09-.539-.117a5.48 5.48 0 0 0-.574-.053l-.539-.012-.562.018-.598.053c-.195.027-.385.067-.568.117s-.34.111-.48.193-.254.182-.34.299a.68.68 0 0 0-.123.41l-1.453-.375c0-.262.065-.488.193-.68s.299-.361.51-.498.461-.248.738-.334.565-.158.861-.205.6-.086.896-.106l.832-.029z" fill="#fff"/></svg>
